<?xml version="1.0" encoding="UTF-8"?>
<svg width="300px" height="173px" viewBox="0 0 300 173" version="1.1" xmlns="http://www.w3.org/2000/svg" xmlns:xlink="http://www.w3.org/1999/xlink">
    <title>电商磁贴/游戏礼包码-1</title>
    <defs>
        <path d="M0,0 L300,0 L300,172 L0,172 L0,0 Z" id="path-1"></path>
    </defs>
    <g id="电商磁贴/游戏礼包码-1" stroke="none" fill="none" transform="translate(0, 0.4286)" xlink:href="#path-1" fill-rule="evenodd" stroke-width="1">
        <g id="电商磁贴/游戏礼包码备份-2">
            <rect id="矩形" fill="#FFFFFF" x="0" y="0" width="300" height="171.428571" rx="3"></rect>
            <rect id="矩形-2" fill-opacity="0.06" fill="#000000" x="25" y="27" width="67" height="67" rx="3"></rect>
            <text id="标题文案" font-family="PingFangSC-Medium, PingFang SC" font-size="14" font-weight="400" letter-spacing="0.254545455" fill="#000000" fill-opacity="0.85">
                <tspan x="116" y="42">标题文案</tspan>
            </text>
            <text id="副标题内容副标题内容副标题-副标题内容副" font-family="PingFangSC-Regular, PingFang SC" font-size="12" font-weight="normal" letter-spacing="0.218181818" fill="#000000" fill-opacity="0.65">
                <tspan x="116" y="70">副标题内容副标题内容副标题</tspan>
                <tspan x="116" y="87">副标题内容副标题内容副标题</tspan>
            </text>
            <g id="z#/关闭-Icon" transform="translate(277, 7)" fill="#000000">
                <rect id="矩形" fill-rule="nonzero" opacity="0" x="0" y="0" width="16" height="16"></rect>
                <path d="M8.809375,8 L12.9109375,3.1109375 C12.9796875,3.0296875 12.921875,2.90625 12.815625,2.90625 L11.56875,2.90625 C11.4953125,2.90625 11.425,2.9390625 11.3765625,2.9953125 L7.99375,7.028125 L4.6109375,2.9953125 C4.5640625,2.9390625 4.49375,2.90625 4.41875,2.90625 L3.171875,2.90625 C3.065625,2.90625 3.0078125,3.0296875 3.0765625,3.1109375 L7.178125,8 L3.0765625,12.8890625 C3.0078125,12.9703125 3.065625,13.09375 3.171875,13.09375 L4.41875,13.09375 C4.4921875,13.09375 4.5625,13.0609375 4.6109375,13.0046875 L7.99375,8.971875 L11.3765625,13.0046875 C11.4234375,13.0609375 11.49375,13.09375 11.56875,13.09375 L12.815625,13.09375 C12.921875,13.09375 12.9796875,12.9703125 12.9109375,12.8890625 L8.809375,8 Z" id="路径" fill-opacity="0.15" fill-rule="evenodd"></path>
            </g>
            <rect id="矩形-3" fill="#3087FF" x="25" y="124" width="250" height="26" rx="3"></rect>
            <text id="立即下载" font-family="PingFangSC-Medium, PingFang SC" font-size="11" font-weight="400" letter-spacing="0.2" fill="#FAFAFA">
                <tspan x="124" y="140">立即下载</tspan>
            </text>
        </g>
    </g>
</svg>